HIERARCHY
ROOT Hips
{
  OFFSET -62.0062 97.9406 49.1825
  CHANNELS 6 Xposition Yposition Zposition Zrotation Xrotation Yrotation
  JOINT ToSpine
  {
    OFFSET -2.69724 7.43032 -0.144315
    CHANNELS 3 Zrotation Xrotation Yrotation
    JOINT Spine
    {
      OFFSET -0.0310711 10.7595 1.96963
      CHANNELS 3 Zrotation Xrotation Yrotation
      JOINT Spine1
      {
        OFFSET 13.1342 3.43533 0.764692
        CHANNELS 3 Zrotation Xrotation Yrotation
        JOINT Neck
        {
          OFFSET 29.8703 7.82586 -0.130764
          CHANNELS 3 Zrotation Xrotation Yrotation
          JOINT Head
          {
            OFFSET 9.52751 0.295786 -0.907742
            CHANNELS 3 Zrotation Xrotation Yrotation
            End Site
            {
              OFFSET 16.4037 0.713936 2.7358
            }
          }
        }
        JOINT LeftShoulder
        {
          OFFSET 27.5574 4.95586 2.47156
          CHANNELS 3 Zrotation Xrotation Yrotation
          JOINT LeftArm
          {
            OFFSET 1.20734 -0.998971 20.1238
            CHANNELS 3 Zrotation Xrotation Yrotation
            JOINT LeftForeArm
            {
              OFFSET 26.8049 -0.0536703 -0.155908
              CHANNELS 3 Zrotation Xrotation Yrotation
              JOINT LeftHand
              {
                OFFSET 26.6817 0 0.320147
                CHANNELS 3 Zrotation Xrotation Yrotation
                End Site
                {
                  OFFSET 18.6119 0 0.382219
                }
              }
            }
          }
        }
        JOINT RightShoulder
        {
          OFFSET 27.5927 4.71444 -2.65209
          CHANNELS 3 Zrotation Xrotation Yrotation
          JOINT RightArm
          {
            OFFSET 2.83739 -1.17114 -18.7564
            CHANNELS 3 Zrotation Xrotation Yrotation
            JOINT RightForeArm
            {
              OFFSET 28.839 -0.0548439 1.22491
              CHANNELS 3 Zrotation Xrotation Yrotation
              JOINT RightHand
              {
                OFFSET 26.5114 0 -0.101894
                CHANNELS 3 Zrotation Xrotation Yrotation
                End Site
                {
                  OFFSET 18.2168 0 0
                }
              }
            }
          }
        }
      }
    }
  }
  JOINT LeftUpLeg
  {
    OFFSET -4.76168 -1.9167 -10.2353
    CHANNELS 3 Zrotation Xrotation Yrotation
    JOINT LeftLeg
    {
      OFFSET 2.55951 -42.0585 -8.02213
      CHANNELS 3 Zrotation Xrotation Yrotation
      JOINT LeftFoot
      {
        OFFSET 3.16357 -42.5282 -3.95426
        CHANNELS 3 Zrotation Xrotation Yrotation
        JOINT LeftToeBase
        {
          OFFSET 0.346054 -6.02161 12.8035
          CHANNELS 3 Zrotation Xrotation Yrotation
          End Site
          {
            OFFSET 0.134235 -1.35082 5.13018
          }
        }
      }
    }
  }
  JOINT RightUpLeg
  {
    OFFSET -4.94151 -1.41743 10.6446
    CHANNELS 3 Zrotation Xrotation Yrotation
    JOINT RightLeg
    {
      OFFSET -2.56294 -42.0364 -7.94377
      CHANNELS 3 Zrotation Xrotation Yrotation
      JOINT RightFoot
      {
        OFFSET -3.0952 -42.555 -4.02241
        CHANNELS 3 Zrotation Xrotation Yrotation
        JOINT RightToeBase
        {
          OFFSET -0.0828122 -6.13587 12.8035
          CHANNELS 3 Zrotation Xrotation Yrotation
          End Site
          {
            OFFSET -0.131328 -1.35082 5.13018
          }
        }
      }
    }
  }
}
MOTION
Frames:	8
Frame Time:	0.00833333
-62.0062 97.9406 49.1825 -5.08923 -69.5607 -94.9465 -70.1915 0 88.8779 67.4894 70.0555 22.2487 4.18121 21.0492 0.845442 -155.812 20.0441 176.851 -160.487 59.2505 -177.159 -0.509723 -16.3732 -35.8622 -68.2913 44.0338 -88.9793 8.23898 18.0991 -27.5799 0.420957 0.000575495 0.35866 -2.03783 6.44729 45.9923 -69.4726 -32.4086 94.0663 1.22301 -16.2967 22.3853 0.58676 0.000331457 0.0646658 -53.9531 2.40011 99.6274 -1.6964 19.2283 -8.09318 4.19203 -6.68759 -0.911818 -1.26198 2.51216 0.4805 -55.7727 0.120268 81.4631 1.96266 13.1758 1.24022 -8.15272 -1.66639 1.21513 0.511687 -4.24892 -0.0817992 
-62.0015 97.9372 49.1825 -5.00087 -69.5549 -94.8506 -70.1915 0 88.8779 67.1405 70.07 22.4944 4.25828 21.0484 1.03346 -155.933 20.0616 176.889 -160.45 59.2559 -177.403 -0.55201 -16.4974 -36.0541 -68.2515 43.9398 -88.9936 8.19933 18.0126 -27.5761 0.420957 0.000575495 0.35866 -2.01751 6.42588 45.7991 -69.5916 -32.5053 94.0428 1.17574 -16.2844 22.3515 0.58676 0.000331457 0.0646658 -53.9371 2.41533 99.6357 -1.70961 19.2498 -8.09566 4.03263 -6.85928 -0.908311 -1.38268 2.79932 0.432512 -55.7682 0.112492 81.45 1.97379 13.1775 1.24883 -8.12624 -1.66715 1.2121 0.515038 -4.22298 -0.130709 
-61.9966 97.9339 49.1825 -4.92451 -69.549 -94.767 -70.1915 0 88.8779 66.8452 70.0817 22.7062 4.32369 21.0481 1.19068 -156.059 20.0705 176.925 -160.428 59.2549 -177.61 -0.599557 -16.633 -36.2654 -68.2214 43.8614 -89.0069 8.16905 17.9495 -27.5721 0.420957 0.000575495 0.35866 -1.99564 6.4023 45.5885 -69.7111 -32.5865 94.0155 1.13163 -16.2894 22.3168 0.58676 0.000331457 0.0646658 -53.9111 2.43142 99.6432 -1.72433 19.2909 -8.10602 3.91924 -6.99329 -0.906376 -1.47392 3.01068 0.408456 -55.7627 0.10514 81.4389 1.98363 13.1801 1.24354 -8.11493 -1.67021 1.21082 0.51362 -4.2046 -0.135805 
-61.9921 97.9302 49.1825 -4.87795 -69.5427 -94.7141 -70.1915 0 88.8779 66.6844 70.0872 22.8324 4.35996 21.0497 1.27093 -156.198 20.0578 176.96 -160.443 59.2391 -177.726 -0.63943 -16.7434 -36.4391 -68.2157 43.8219 -89.0182 8.16216 17.9449 -27.5677 0.420957 0.000575495 0.35866 -1.97751 6.38197 45.4128 -69.8317 -32.6289 93.9787 1.09536 -16.3377 22.2799 0.58676 0.000331457 0.0646658 -53.8598 2.44961 99.6485 -1.74278 19.3806 -8.13613 3.92083 -7.03308 -0.90836 -1.49253 3.03256 0.444261 -55.7548 0.098894 81.4328 1.99028 13.1849 1.20351 -8.14151 -1.67904 1.21391 0.500184 -4.20512 -0.0313745 
-61.9885 97.9256 49.1825 -4.87279 -69.5338 -94.7028 -70.1915 0 88.8779 66.7042 70.0835 22.8508 4.35916 21.055 1.24124 -156.374 20.0139 177.002 -160.526 59.2033 -177.706 -0.657778 -16.7933 -36.5179 -68.2471 43.8388 -89.0298 8.18961 18.0295 -27.5613 0.420957 0.000575495 0.35866 -1.96819 6.37066 45.3246 -69.9718 -32.618 93.9225 1.06991 -16.464 22.2359 0.58676 0.000331457 0.0646658 -53.7631 2.47482 99.652 -1.77067 19.5545 -8.20093 4.10271 -6.92994 -0.91658 -1.399 2.76173 0.575657 -55.7416 0.0945229 81.4343 1.99297 13.1915 1.10534 -8.22923 -1.69672 1.22408 0.467209 -4.23494 0.251441 
-61.9859 97.9189 49.1825 -4.89718 -69.5233 -94.7212 -70.1915 0 88.8779 66.8532 70.0732 22.7917 4.33173 21.0628 1.1331 -156.577 19.9478 177.048 -160.657 59.1532 -177.588 -0.643114 -16.7532 -36.4538 -68.3046 43.8956 -89.0414 8.24149 18.1775 -27.5538 0.420957 0.000575495 0.35866 -1.97104 6.37155 45.3629 -70.1248 -32.569 93.8529 1.05199 -16.6452 22.1872 0.58676 0.000331457 0.0646658 -53.6345 2.50486 99.6542 -1.80452 19.7876 -8.29046 4.41252 -6.72523 -0.929221 -1.22321 2.28314 0.774679 -55.7248 0.091485 81.4411 1.99286 13.1996 0.966073 -8.36021 -1.72067 1.23924 0.420989 -4.28539 0.660525 
-61.9841 97.9108 49.1825 -4.93388 -69.5154 -94.7538 -70.1915 0 88.8779 67.0669 70.0616 22.6819 4.28769 21.0701 0.997066 -156.759 19.8743 177.081 -160.781 59.0963 -177.447 -0.605433 -16.6488 -36.2884 -68.3679 43.966 -89.0481 8.30054 18.3393 -27.548 0.420957 0.000575495 0.35866 -1.98263 6.38112 45.4914 -70.2538 -32.5028 93.7889 1.03695 -16.8207 22.1428 0.58676 0.000331457 0.0646658 -53.5092 2.5303 99.6537 -1.83313 20.0188 -8.37908 4.7427 -6.49752 -0.94242 -1.02756 1.76532 0.981792 -55.7093 0.0884955 81.4492 1.99083 13.2099 0.825575 -8.49558 -1.74591 1.25491 0.374673 -4.33929 1.08011 
-61.983 97.9032 49.1825 -4.9657 -69.5145 -94.7851 -70.1915 0 88.8779 67.2806 70.054 22.5483 4.23704 21.0738 0.883692 -156.877 19.8087 177.084 -160.847 59.0404 -177.354 -0.562633 -16.5271 -36.098 -68.4166 44.023 -89.0447 8.34955 18.465 -27.5466 0.420957 0.000575495 0.35866 -1.99774 6.39518 45.6494 -70.3218 -32.4405 93.7486 1.02046 -16.9297 22.1114 0.58676 0.000331457 0.0646658 -53.4226 2.54168 99.6491 -1.84609 20.1871 -8.44071 4.98555 -6.3254 -0.952315 -0.878563 1.37678 1.13757 -55.7 0.0842672 81.454 1.98777 13.2231 0.723705 -8.5965 -1.76743 1.26659 0.340562 -4.37969 1.39434 
